<svg width="120" height="127" viewBox="0 0 120 127" fill="none" xmlns="http://www.w3.org/2000/svg">
<path d="M94.9499 41.9919C96.82 43.8252 97.977 47.1591 98.9891 51.1252C99.2357 52.0912 99.4685 53.07 99.7019 54.0516L99.7069 54.0728C99.9376 55.0429 100.169 56.0167 100.41 56.9597C100.893 58.8474 101.433 60.6897 102.132 62.2436C103.284 64.8018 104.778 66.6795 106.042 68.2677C106.421 68.7435 106.779 69.1932 107.101 69.6276C108.496 71.5097 109.5 73.3894 109.5 76.6279C109.5 80.0095 108.127 81.8633 106.185 83.7815C105.825 84.1369 105.436 84.5008 105.029 84.8812C103.249 86.545 101.133 88.5229 99.6882 91.4671C98.9544 92.9623 98.5512 94.8065 98.271 96.6677C98.0732 97.9816 97.925 99.3991 97.7796 100.789C97.719 101.368 97.6589 101.943 97.5959 102.503C97.3768 104.452 97.1192 106.274 96.6885 107.831C96.2539 109.402 95.6845 110.544 94.9499 111.264C94.2078 111.991 93.1469 112.462 91.7339 112.739C90.3147 113.018 88.6755 113.077 86.8824 113.085C86.4544 113.087 86.0154 113.085 85.5701 113.084C84.2033 113.08 82.7784 113.076 81.4377 113.16C79.6536 113.271 77.8355 113.543 76.2587 114.264C73.3341 115.6 71.1858 117.968 69.332 120.011C68.9631 120.418 68.6058 120.812 68.2564 121.182C66.0559 123.514 64.0455 125.128 61 125.128C57.9307 125.128 55.7614 123.488 53.4 121.146C53.0013 120.751 52.5935 120.33 52.173 119.896C50.217 117.876 47.9867 115.572 45.1235 114.264C43.5519 113.545 41.7772 113.272 40.0443 113.16C38.745 113.076 37.3718 113.08 36.0615 113.084C35.6358 113.085 35.2167 113.087 34.8089 113.085C33.0944 113.077 31.5365 113.018 30.1802 112.741C28.836 112.467 27.8024 112.002 27.0501 111.264C26.2992 110.528 25.693 109.364 25.2016 107.785C24.7147 106.22 24.3832 104.393 24.0876 102.445C23.9939 101.829 23.9031 101.194 23.8117 100.555C23.6214 99.2241 23.4282 97.8734 23.2001 96.622C22.8619 94.7667 22.4176 92.9416 21.6939 91.4671C20.2867 88.5996 18.3384 86.6457 16.7022 85.005C16.2929 84.5945 15.9031 84.2036 15.5462 83.8228C13.7684 81.9263 12.5 80.06 12.5 76.6279C12.5 73.4876 14.0061 70.8648 16.0856 68.0902C16.5532 67.4662 17.0587 66.8261 17.5777 66.1687C19.2683 64.0276 21.1035 61.7033 22.25 59.156C23.4157 56.566 23.7509 53.6122 24.049 50.9841C24.1107 50.4407 24.1708 49.9113 24.2363 49.4018C24.6394 46.2668 25.2381 43.7683 27.0501 41.9919C27.7987 41.258 28.9239 40.6057 30.3798 40.0119C31.8234 39.423 33.4898 38.9316 35.248 38.4671C35.9702 38.2762 36.7315 38.0842 37.495 37.8917C38.5252 37.6319 39.5593 37.371 40.5063 37.1109C42.1877 36.6489 43.8228 36.1312 45.1609 35.4745C46.9121 34.6151 48.347 33.6943 49.6202 32.8165C50.0913 32.4917 50.5254 32.1838 50.9405 31.8893C51.6811 31.364 52.3614 30.8814 53.084 30.4219C55.202 29.0753 57.3921 28.1279 61 28.1279C63.8691 28.1279 66.4497 29.5299 69.2191 31.4562C69.8214 31.8751 70.4395 32.3254 71.072 32.7862C73.2102 34.344 75.5135 36.0219 77.9296 37.0153C80.5187 38.0797 83.3033 38.441 85.7909 38.7638C86.4045 38.8434 87.0001 38.9207 87.5701 39.0056C90.5686 39.4522 93.0261 40.1059 94.9499 41.9919Z" fill="white" stroke="#CAB2F1" stroke-width="3"/>
<path d="M67.25 85.3779L61 91.6279M61 91.6279L54.75 85.3779M61 91.6279V61.6279" stroke="#363636" stroke-width="1.5" stroke-linecap="round" stroke-linejoin="round"/>
<path d="M27.2103 11.9511L28.0158 10.3925C29.1422 10.6411 30.5589 11.097 31.3329 11.5349L30.4736 13.2313C29.7485 12.749 28.3376 12.2355 27.2103 11.9511ZM19.4344 19.6688L32.1628 12.8326L33.0144 14.4456L20.286 21.2818L19.4344 19.6688ZM21.2807 23.8168C22.8518 22.6461 25.2835 20.7408 27.5112 18.9632L28.4523 20.4373C26.4228 22.1448 24.2316 23.9573 22.6075 25.3017L21.2807 23.8168ZM20.9099 15.9524L22.6154 15.0364L27.6654 24.6011C28.151 25.5208 28.2143 26.0861 27.7783 26.6653C27.3564 27.237 26.5546 27.7403 25.3988 28.361C25.0743 27.9178 24.389 27.3052 23.8813 26.9604C24.7071 26.5713 25.5247 26.1322 25.7709 25.9818C26.0247 25.8455 26.0719 25.7294 25.9449 25.4888L20.9099 15.9524ZM22.9254 12.745L24.8292 13.575C23.2955 15.1251 21.0869 16.8017 19.1625 18.1258C18.8688 17.7751 18.3212 17.2519 17.9222 16.9759C19.7677 15.6396 21.7351 14.02 22.9254 12.745ZM24.3218 12.0314L26.0978 11.0775C29.0097 16.8326 33.3411 21.9523 34.6238 21.2634C34.9199 21.1044 34.7089 20.3278 33.9045 18.5987C34.466 18.8056 35.2531 18.8914 35.8013 18.833C36.8557 21.4812 36.6488 22.3915 35.3661 23.0804C32.4483 24.6475 27.7182 18.3616 24.3218 12.0314ZM31.3157 15.9572L33.146 15.7915C33.0696 19.2105 31.8851 22.5527 30.0509 25.2813C29.5731 24.9931 28.8091 24.677 28.1845 24.5221C30.0122 22.1239 31.2938 18.9656 31.3157 15.9572Z" fill="#B28FEA"/>
<path d="M37.1778 8.05783L51.1383 5.09248L51.5046 6.84665L37.5441 9.812L37.1778 8.05783ZM42.5809 12.7986L49.389 11.3525L49.716 12.9188L42.9079 14.3649L42.5809 12.7986ZM40.6352 10.4476L48.5546 8.76546L48.898 10.41L42.8411 11.6965L44.545 19.8565L42.6825 20.2521L40.6352 10.4476ZM48.1789 8.84525L50.0101 8.45629L51.6355 16.2404C51.8284 17.1645 51.7642 17.7179 51.1846 18.1518C50.6175 18.5667 49.7287 18.7718 48.4609 19.0411C48.2748 18.5409 47.8576 17.7953 47.5058 17.363C48.3294 17.2371 49.2495 17.0253 49.5156 16.9688C49.766 16.9156 49.8436 16.8173 49.7978 16.598L48.1789 8.84525ZM41.6306 5.11649L43.6628 5.1428C43.3064 8.91517 42.1805 12.9164 39.5733 15.6947C39.219 15.3284 38.4836 14.7812 38.0328 14.5008C40.436 12.0765 41.4857 8.33684 41.6306 5.11649ZM43.1205 15.3829L49.9286 13.9368L50.2556 15.503L43.4475 16.9491L43.1205 15.3829Z" fill="#B28FEA"/>
<path d="M58.2203 12.0522L72.8593 13.2508L72.7181 15.0051L58.0791 13.8066L58.2203 12.0522ZM64.8472 5.90047L67.2232 6.095L67.1269 7.29113L64.7509 7.0966L64.8472 5.90047ZM69.4868 4.09705L71.9426 4.29811L71.8194 5.82916L69.3636 5.6281L69.4868 4.09705ZM69.3157 7.02083L71.5482 7.20362L71.425 8.73467L69.1925 8.55188L69.3157 7.02083ZM69.0674 9.90619L71.2999 10.089L71.178 11.6041L68.9455 11.4213L69.0674 9.90619ZM60.4812 6.29753L62.7138 6.48032L62.5905 8.01137L60.358 7.82858L60.4812 6.29753ZM60.2808 9.18681L62.4814 9.36698L62.3595 10.8821L60.1589 10.7019L60.2808 9.18681ZM63.334 3.56119L69.1704 4.03904L68.4016 13.5921L67.0142 13.4786L67.6688 5.34486L64.5592 5.09027L63.9046 13.224L62.5651 13.1143L63.334 3.56119ZM65.4338 8.98261L65.3195 10.402L65.9893 10.4569L66.1035 9.03745L65.4338 8.98261ZM64.741 7.8182L66.9894 8.00228L66.6981 11.6226L64.4496 11.4385L64.741 7.8182ZM60.0279 3.35473L62.0089 3.8701C61.9827 3.99638 61.8646 4.06698 61.6056 4.09394L61.1222 13.0925L59.5116 12.9606L60.0279 3.35473ZM70.906 4.21325L72.5964 4.35164C72.3039 7.58656 71.8254 11.7373 71.4204 14.1764L69.8098 14.0446C70.2199 11.5417 70.6825 7.38959 70.906 4.21325ZM62.8151 2.82841L63.9274 4.3643C62.9481 4.76572 61.8291 5.10755 60.9582 5.35732C60.8921 4.98267 60.7003 4.373 60.5385 3.99051C61.3175 3.68506 62.2223 3.21332 62.8151 2.82841ZM66.3293 15.6058L67.8659 14.4633C69.5266 15.3699 71.4524 16.571 72.5466 17.3349L70.5597 18.4886C69.6102 17.7205 67.9089 16.5217 66.3293 15.6058ZM62.5544 14.0445L64.1791 15.3976C62.8462 16.2035 60.8319 17.0982 59.3173 17.5681C58.9813 17.1553 58.3763 16.4958 57.9261 16.1057C59.5032 15.6569 61.5015 14.761 62.5544 14.0445Z" fill="#B28FEA"/>
<path d="M85.5695 7.61063L92.742 10.356L92.1729 11.8685L85.0004 9.1231L85.5695 7.61063ZM88.7005 11.6016L91.9282 12.837L91.3929 14.2596L88.1652 13.0242L88.7005 11.6016ZM85.8234 10.8429L88.2591 11.7752L87.752 13.123L85.3163 12.1907L85.8234 10.8429ZM84.8374 13.4636L87.273 14.3959L86.7603 15.7586L84.3246 14.8263L84.8374 13.4636ZM88.424 9.47419L89.8287 10.0118L85.8731 20.5243L84.4684 19.9866L88.424 9.47419ZM86.0036 8.41065L87.3932 8.94257L84.266 17.2537L82.7974 16.9314L86.0036 8.41065ZM81.9535 16.4028C83.0429 16.5971 84.6143 16.8731 86.197 17.1191L85.845 18.5091C84.406 18.3352 82.9073 18.1384 81.6908 17.9641L81.9535 16.4028ZM91.5695 12.6997L91.8684 12.8141L92.1486 12.8871L92.9587 13.5056C91.1089 17.286 89.0202 19.793 86.8635 20.6635C86.8194 20.2355 86.5536 19.3971 86.3449 19.0431C88.2398 18.2779 89.9857 16.1366 91.4569 12.9992L91.5695 12.6997ZM89.685 13.9828C89.2822 16.5526 89.4624 19.2084 90.5752 20.885C90.145 21.0287 89.4846 21.3755 89.1196 21.6641C87.9923 19.7079 87.9285 16.7882 88.3881 13.7948L89.685 13.9828ZM80.3319 6.71941L85.2929 8.61832L84.7069 10.1757L79.7459 8.27681L80.3319 6.71941ZM78.9402 9.3732L84.4839 11.4952L83.8923 13.0676L78.3485 10.9456L78.9402 9.3732ZM80.8841 13.4751L83.2899 14.396L82.6982 15.9683L80.2924 15.0475L80.8841 13.4751ZM82.8286 5.94477L84.4275 6.55677L82.4328 11.8579L80.8339 11.2459L82.8286 5.94477ZM81.1365 11.396L82.6905 11.9908L80.1774 18.6696L78.6234 18.0748L81.1365 11.396ZM79.2567 14.12C78.9401 17.5964 80.5735 18.7527 83.7264 19.9596C84.8023 20.3714 88.637 21.8563 89.9652 22.279C89.5235 22.5897 88.9147 23.2989 88.5923 23.7922L83.0635 21.676C79.1336 20.1717 77.3625 18.6544 77.8252 14.0174L79.2567 14.12ZM78.4457 11.9593L79.882 12.5947C79.0438 15.0492 77.9081 17.7496 75.9593 19.385C75.8555 18.9341 75.4849 18.1926 75.2031 17.8964C76.7852 16.4632 77.7522 14.0751 78.4457 11.9593Z" fill="#B28FEA"/>
<path d="M100.32 25.3157L103.271 20.6844L104.637 18.728L106.736 20.3283L105.243 22.1877L101.631 26.3147L100.32 25.3157ZM98.4205 29.2388C97.7588 28.7345 97.6429 27.9018 98.1418 27.236C98.6407 26.5702 99.4696 26.4778 100.119 26.9724C100.755 27.4574 100.893 28.2869 100.394 28.9527C99.8953 29.6186 99.0567 29.7238 98.4205 29.2388Z" fill="#B28FEA"/>
</svg>
