<svg width="60" height="60" viewBox="0 0 60 60" fill="none" xmlns="http://www.w3.org/2000/svg">
<path d="M9.64685 10.0501C10.5517 9.12704 11.8539 8.792 13.7312 8.56298C14.0144 8.52843 14.3145 8.49651 14.6272 8.46325C16.2061 8.29529 18.1048 8.09333 19.7631 7.34695C21.3751 6.6214 22.8604 5.43739 24.1571 4.40372C24.5356 4.102 24.898 3.81309 25.2428 3.55213C26.8889 2.30634 28.3261 1.5 30 1.5C31.8027 1.5 32.7704 2.20207 33.8653 3.31055C34.0614 3.50908 34.2676 3.73016 34.4874 3.96578C35.4853 5.03546 36.7629 6.40491 38.6391 7.32569C39.622 7.80804 40.8037 8.06045 41.9345 8.23069C42.737 8.35151 43.61 8.44283 44.4494 8.53064C44.7937 8.56665 45.1323 8.60207 45.458 8.63869C46.6239 8.76974 47.6763 8.92028 48.5617 9.16519C49.4608 9.41392 50.0284 9.71877 50.3531 10.0501C50.6771 10.3805 50.9238 10.8903 51.0779 11.6753C51.2332 12.4662 51.2696 13.4002 51.2742 14.4731C51.2752 14.7204 51.2745 14.9776 51.2737 15.2408C51.2714 16.0651 51.2689 16.9488 51.3204 17.7747C51.3887 18.8709 51.5578 20.0485 52.0357 21.0942C52.8944 22.973 54.4278 24.3611 55.6524 25.4696C55.889 25.6839 56.1142 25.8877 56.3207 26.0825C57.6969 27.3813 58.5 28.4357 58.5 30C58.5 31.588 57.6713 32.7396 56.2851 34.1375C56.0645 34.3599 55.8238 34.5926 55.5712 34.8367C54.3588 36.0084 52.8731 37.4442 52.0357 39.2765C51.5602 40.317 51.3895 41.4666 51.3206 42.5348C51.2689 43.3367 51.2714 44.1904 51.2737 44.9808C51.2745 45.2321 51.2752 45.4771 51.2742 45.712C51.2696 46.7372 51.2332 47.6208 51.0801 48.372C50.9294 49.1113 50.6871 49.6093 50.3531 49.9499C50.0123 50.2976 49.4237 50.6238 48.516 50.9062C47.623 51.184 46.5642 51.3776 45.4004 51.5543C45.0417 51.6087 44.6672 51.6623 44.287 51.7167C43.4819 51.8319 42.6509 51.9508 41.8889 52.0897C40.7638 52.2947 39.6013 52.5728 38.6391 53.045C36.8193 53.9381 35.5591 55.1969 34.5735 56.1813C34.3366 56.4178 34.1157 56.6385 33.9066 56.8345C32.8334 57.8406 31.8532 58.5 30 58.5C28.3207 58.5 26.8811 57.7006 25.2372 56.4685C24.8886 56.2073 24.5221 55.9177 24.1392 55.6151C22.8461 54.5935 21.3666 53.4245 19.7631 52.7029C18.1143 51.9608 16.2261 51.7479 14.6508 51.5703C14.3333 51.5345 14.0284 51.5001 13.7408 51.4631C11.865 51.2219 10.5562 50.8775 9.64685 49.9499C9.37702 49.6747 9.14035 49.2005 8.97913 48.4117C8.81907 47.6285 8.76381 46.697 8.73269 45.6371C8.72587 45.4048 8.72023 45.1646 8.71447 44.9195C8.69512 44.0962 8.67449 43.2181 8.60378 42.4047C8.51225 41.3518 8.32568 40.2154 7.84658 39.2391C6.93314 37.3779 5.4878 36.002 4.32121 34.8914C4.05637 34.6393 3.80589 34.4008 3.57926 34.1735C2.29544 32.8856 1.5 31.7708 1.5 30C1.5 28.6559 2.31891 27.5446 3.76663 26.1028C3.96745 25.9028 4.18606 25.6908 4.41299 25.4707C4.93069 24.9687 5.49165 24.4248 5.98333 23.8854C6.71375 23.0841 7.43088 22.1513 7.88733 21.0411C8.34957 19.9167 8.51161 18.7297 8.56994 17.6213C8.61128 16.8357 8.60185 16.0068 8.59316 15.243C8.58987 14.9538 8.58669 14.6738 8.58641 14.4091C8.58416 12.29 8.78043 10.9339 9.64685 10.0501Z" fill="white" stroke="#CAB2F1" stroke-width="3"/>
<path d="M36.5625 25.3125L41.25 30M41.25 30L36.5625 34.6875M41.25 30L18.75 30" stroke="#363636" stroke-width="1.5" stroke-linecap="round" stroke-linejoin="round"/>
</svg>
