<svg width="120" height="126" viewBox="0 0 120 126" fill="none" xmlns="http://www.w3.org/2000/svg">
<path d="M94.9499 41.364C96.82 43.1973 97.977 46.5312 98.9891 50.4973C99.2357 51.4633 99.4685 52.4421 99.7019 53.4236L99.7069 53.4449C99.9376 54.415 100.169 55.3888 100.41 56.3318C100.893 58.2194 101.433 60.0618 102.132 61.6156C103.284 64.1739 104.778 66.0515 106.042 67.6398C106.421 68.1155 106.779 68.5653 107.101 68.9996C108.496 70.8818 109.5 72.7615 109.5 76C109.5 79.3816 108.127 81.2354 106.185 83.1536C105.825 83.5089 105.436 83.8729 105.029 84.2533C103.249 85.9171 101.133 87.895 99.6882 90.8391C98.9544 92.3344 98.5512 94.1786 98.271 96.0398C98.0732 97.3537 97.925 98.7712 97.7796 100.161C97.719 100.74 97.6589 101.315 97.5959 101.875C97.3768 103.824 97.1192 105.646 96.6885 107.203C96.2539 108.774 95.6845 109.916 94.9499 110.636C94.2078 111.364 93.1469 111.834 91.7339 112.111C90.3147 112.39 88.6755 112.449 86.8824 112.457C86.4544 112.459 86.0154 112.458 85.5701 112.456C84.2033 112.452 82.7784 112.448 81.4377 112.532C79.6536 112.643 77.8355 112.915 76.2587 113.636C73.3341 114.972 71.1858 117.34 69.332 119.383C68.9631 119.79 68.6058 120.184 68.2564 120.554C66.0559 122.886 64.0455 124.5 61 124.5C57.9307 124.5 55.7614 122.86 53.4 120.519C53.0013 120.123 52.5935 119.702 52.173 119.268C50.217 117.248 47.9867 114.944 45.1235 113.636C43.5519 112.918 41.7772 112.644 40.0443 112.532C38.745 112.448 37.3718 112.452 36.0615 112.456C35.6358 112.458 35.2167 112.459 34.8089 112.457C33.0944 112.449 31.5365 112.39 30.1802 112.113C28.836 111.839 27.8024 111.374 27.0501 110.636C26.2992 109.9 25.693 108.737 25.2016 107.157C24.7147 105.592 24.3832 103.765 24.0876 101.817C23.9939 101.201 23.9031 100.566 23.8117 99.9271C23.6214 98.5961 23.4282 97.2455 23.2001 95.9941C22.8619 94.1387 22.4176 92.3136 21.6939 90.8391C20.2867 87.9717 18.3384 86.0178 16.7022 84.377C16.2929 83.9665 15.9031 83.5756 15.5462 83.1949C13.7684 81.2984 12.5 79.4321 12.5 76C12.5 72.8597 14.0061 70.2369 16.0856 67.4623C16.5532 66.8383 17.0587 66.1981 17.5777 65.5407C19.2683 63.3997 21.1035 61.0754 22.25 58.5281C23.4157 55.938 23.7509 52.9842 24.049 50.3562C24.1107 49.8128 24.1708 49.2833 24.2363 48.7739C24.6394 45.6389 25.2381 43.1403 27.0501 41.364C27.7987 40.63 28.9239 39.9778 30.3798 39.3839C31.8234 38.7951 33.4898 38.3037 35.248 37.8391C35.9702 37.6483 36.7315 37.4563 37.495 37.2637C38.5252 37.0039 39.5593 36.7431 40.5063 36.4829C42.1877 36.021 43.8228 35.5033 45.1609 34.8466C46.9121 33.9871 48.347 33.0664 49.6202 32.1885C50.0913 31.8637 50.5254 31.5558 50.9405 31.2613C51.6811 30.736 52.3614 30.2535 53.084 29.794C55.202 28.4473 57.3921 27.5 61 27.5C63.8691 27.5 66.4497 28.902 69.2191 30.8283C69.8214 31.2472 70.4395 31.6975 71.072 32.1583C73.2102 33.716 75.5135 35.394 77.9296 36.3873C80.5187 37.4518 83.3033 37.8131 85.7909 38.1359C86.4045 38.2155 87.0001 38.2928 87.5701 38.3777C90.5686 38.8242 93.0261 39.478 94.9499 41.364Z" fill="white" stroke="#A6B6F1" stroke-width="3"/>
<path d="M67.25 84.75L61 91M61 91L54.75 84.75M61 91V61" stroke="#363636" stroke-width="1.5" stroke-linecap="round" stroke-linejoin="round"/>
<path d="M27.0066 11.9472L27.8127 10.3826C28.9353 10.6298 30.3471 11.0842 31.118 11.5218L30.258 13.2248C29.5359 12.7425 28.13 12.2303 27.0066 11.9472ZM19.2385 19.7019L31.943 12.8216L32.7891 14.4375L20.0846 21.3178L19.2385 19.7019ZM21.0716 23.858C22.6404 22.681 25.0686 20.7655 27.2932 18.9785L28.2288 20.455C26.202 22.1713 24.0137 23.9931 22.3917 25.3446L21.0716 23.858ZM20.7167 15.9721L22.4191 15.0502L27.4363 24.6321C27.9188 25.5535 27.9808 26.1203 27.5449 26.702C27.1232 27.2761 26.3228 27.7823 25.1691 28.4071C24.8464 27.9633 24.1642 27.3502 23.6587 27.0054C24.4829 26.6137 25.2989 26.1717 25.5447 26.0204C25.798 25.8833 25.8453 25.7667 25.7191 25.5257L20.7167 15.9721ZM22.7325 12.7518L24.6292 13.5804C23.0971 15.1379 20.8916 16.8235 18.9703 18.1551C18.6781 17.8039 18.133 17.2804 17.7357 17.0043C19.5784 15.6607 21.5432 14.0327 22.7325 12.7518ZM24.1262 12.0334L25.8989 11.0734C28.7915 16.839 33.1007 21.9648 34.381 21.2714C34.6765 21.1114 34.4676 20.3331 33.6688 18.6006C34.2283 18.807 35.013 18.8915 35.5597 18.8319C36.606 21.4856 36.398 22.3988 35.1177 23.0921C32.2053 24.6693 27.5008 18.3749 24.1262 12.0334ZM31.0925 15.9567L32.9178 15.7869C32.8351 19.2158 31.6477 22.5697 29.8137 25.3096C29.3378 25.0215 28.5766 24.706 27.9541 24.5518C29.7811 22.1433 31.065 18.9736 31.0925 15.9567Z" fill="#7F94E2"/>
<path d="M36.816 8.07112L50.7715 5.08213L51.1349 6.8369L37.1794 9.82589L36.816 8.07112ZM42.2083 12.8067L49.0139 11.3491L49.3384 12.9158L42.5327 14.3735L42.2083 12.8067ZM40.2675 10.4571L48.184 8.76157L48.5246 10.4067L42.47 11.7035L44.1603 19.8663L42.2986 20.265L40.2675 10.4571ZM47.8085 8.84199L49.639 8.44994L51.2515 16.2367C51.4429 17.1611 51.3779 17.715 50.7981 18.1501C50.2307 18.5661 49.3421 18.7728 48.0749 19.0442C47.8896 18.5439 47.4738 17.7985 47.1229 17.3664C47.9462 17.2392 48.866 17.0258 49.132 16.9689C49.3823 16.9152 49.4599 16.8168 49.4145 16.5974L47.8085 8.84199ZM41.2702 5.1209L43.3011 5.14408C42.9392 8.91952 41.808 12.9252 39.1984 15.7094C38.8448 15.3433 38.1108 14.7969 37.6607 14.517C40.0659 12.0875 41.1206 8.34362 41.2702 5.1209ZM42.7436 15.3919L49.5492 13.9342L49.8737 15.501L43.068 16.9586L42.7436 15.3919Z" fill="#7F94E2"/>
<path d="M57.6788 12.0479L72.317 13.2564L72.1769 15.0108L57.5387 13.8023L57.6788 12.0479ZM64.3009 5.89992L66.6768 6.09606L66.5814 7.29226L64.2054 7.09611L64.3009 5.89992ZM68.9389 4.09941L71.3945 4.30214L71.2723 5.83327L68.8167 5.63054L68.9389 4.09941ZM68.7697 7.02339L71.0021 7.20769L70.8799 8.73882L68.6475 8.55452L68.7697 7.02339ZM68.5233 9.90889L70.7557 10.0932L70.6348 11.6084L68.4024 11.4241L68.5233 9.90889ZM59.9357 6.29411L62.1681 6.4784L62.0459 8.00953L59.8135 7.82524L59.9357 6.29411ZM59.7372 9.18356L61.9377 9.36522L61.8168 10.8804L59.6163 10.6987L59.7372 9.18356ZM62.7864 3.55938L68.6225 4.04118L67.8599 13.5948L66.4727 13.4803L67.1219 5.34614L64.0125 5.08944L63.3632 13.2236L62.0238 13.113L62.7864 3.55938ZM64.8895 8.98278L64.7762 10.4023L65.4459 10.4576L65.5592 9.03807L64.8895 8.98278ZM64.196 7.81778L66.4443 8.00339L66.1554 11.6239L63.907 11.4383L64.196 7.81778ZM59.4805 3.35068L61.4616 3.86743C61.4355 3.99371 61.3175 4.06424 61.0586 4.09103L60.581 13.0902L58.9705 12.9573L59.4805 3.35068ZM70.358 4.21657L72.0483 4.35611C71.758 7.59118 71.2822 11.7421 70.8788 14.1812L69.2683 14.0482C69.6768 11.5453 70.1366 7.39311 70.358 4.21657ZM62.267 2.82617L63.3803 4.36297C62.4013 4.76378 61.2826 5.10489 60.412 5.35411C60.3456 4.97938 60.1536 4.36951 59.9915 3.98688C60.7702 3.68192 61.6746 3.21073 62.267 2.82617ZM65.7893 15.6072L67.3249 14.4657C68.986 15.3735 70.9124 16.576 72.007 17.3407L70.021 18.4932C69.0712 17.7244 67.3693 16.5244 65.7893 15.6072ZM62.0137 14.0433L63.6391 15.3976C62.3068 16.2027 60.2934 17.0961 58.7793 17.5651C58.4431 17.1521 57.8377 16.492 57.3873 16.1016C58.9639 15.6538 60.9614 14.7592 62.0137 14.0433Z" fill="#7F94E2"/>
<path d="M84.8495 7.60914L92.0144 10.3745L91.4494 11.8885L84.2845 9.12316L84.8495 7.60914ZM87.9829 11.6138L91.2071 12.8582L90.6756 14.2823L87.4514 13.0379L87.9829 11.6138ZM85.1095 10.8478L87.5426 11.7869L87.0392 13.136L84.6061 12.1969L85.1095 10.8478ZM84.1306 13.4711L86.5637 14.4102L86.0546 15.7743L83.6216 14.8352L84.1306 13.4711ZM87.7026 9.48201L89.1057 10.0236L85.1788 20.5467L83.7756 20.0052L87.7026 9.48201ZM85.2844 8.41151L86.6726 8.94729L83.568 17.2669L82.1015 16.941L85.2844 8.41151ZM81.258 16.4097C82.3458 16.6065 83.9149 16.8863 85.4952 17.1361L85.1466 18.5279C83.71 18.3507 82.2137 18.1504 80.9991 17.9732L81.258 16.4097ZM90.8488 12.7199L91.1474 12.8352L91.4272 12.9089L92.2371 13.5301C90.3983 17.3136 88.3186 19.8207 86.1676 20.6883C86.1227 20.2594 85.8558 19.4189 85.6467 19.0639C87.5365 18.3013 89.2749 16.1597 90.7369 13.0198L90.8488 12.7199ZM88.9703 14.0014C88.5735 16.575 88.7588 19.236 89.8729 20.9179C89.4439 21.061 88.7853 21.4071 88.4216 21.6954C87.2924 19.7333 87.2228 16.8082 87.6755 13.8103L88.9703 14.0014ZM79.6198 6.70538L84.5755 8.61807L83.9937 10.1771L79.038 8.26437L79.6198 6.70538ZM78.236 9.36107L83.7738 11.4984L83.1865 13.0724L77.6486 10.935L78.236 9.36107ZM80.1846 13.4744L82.5879 14.402L82.0005 15.9759L79.5973 15.0484L80.1846 13.4744ZM82.1103 5.93455L83.7075 6.55099L81.7272 11.8575L80.1301 11.2411L82.1103 5.93455ZM80.4323 11.3921L81.9847 11.9912L79.4899 18.6769L77.9375 18.0777L80.4323 11.3921ZM78.5616 14.1171C78.2527 17.5992 79.8854 18.761 83.035 19.9765C84.1097 20.3913 87.9403 21.8869 89.2669 22.3132C88.8266 22.6235 88.2204 23.3327 87.8996 23.8263L82.3767 21.6947C78.451 20.1795 76.6801 18.6557 77.1325 14.0113L78.5616 14.1171ZM77.7477 11.9508L79.1826 12.5903C78.351 15.0476 77.2228 17.7505 75.281 19.3847C75.1764 18.9328 74.805 18.1892 74.5232 17.8918C76.0994 16.4594 77.0597 14.069 77.7477 11.9508Z" fill="#7F94E2"/>
<path d="M99.4673 25.3413L102.401 20.6957L103.76 18.7334L105.853 20.3421L104.368 22.2069L100.774 26.3455L99.4673 25.3413ZM97.579 29.2772C96.9193 28.7702 96.803 27.9343 97.2992 27.2665C97.7955 26.5987 98.6211 26.5069 99.2681 27.0041C99.9024 27.4916 100.041 28.3244 99.5447 28.9923C99.0484 29.6601 98.2133 29.7647 97.579 29.2772Z" fill="#7F94E2"/>
</svg>
