<svg width="48" height="48" viewBox="0 0 48 48" fill="none" xmlns="http://www.w3.org/2000/svg">
<circle cx="24" cy="24" r="23" stroke="#363636" stroke-width="2"/>
<path d="M25.3125 24C25.3125 24.2596 25.2355 24.5133 25.0913 24.7292C24.9471 24.945 24.7421 25.1132 24.5023 25.2126C24.2624 25.3119 23.9985 25.3379 23.7439 25.2873C23.4893 25.2366 23.2555 25.1116 23.0719 24.9281C22.8884 24.7445 22.7634 24.5106 22.7127 24.256C22.6621 24.0014 22.6881 23.7375 22.7874 23.4977C22.8867 23.2579 23.055 23.0529 23.2708 22.9087C23.4867 22.7645 23.7404 22.6875 24 22.6875C24.3481 22.6875 24.6819 22.8258 24.9281 23.0719C25.1742 23.318 25.3125 23.6519 25.3125 24ZM19.1875 22.6875C18.9279 22.6875 18.6742 22.7645 18.4583 22.9087C18.2425 23.0529 18.0742 23.2579 17.9749 23.4977C17.8756 23.7375 17.8496 24.0014 17.9002 24.256C17.9509 24.5106 18.0759 24.7445 18.2594 24.9281C18.443 25.1116 18.6768 25.2366 18.9314 25.2873C19.186 25.3379 19.4499 25.3119 19.6898 25.2126C19.9296 25.1132 20.1346 24.945 20.2788 24.7292C20.423 24.5133 20.5 24.2596 20.5 24C20.5 23.6519 20.3617 23.318 20.1156 23.0719C19.8694 22.8258 19.5356 22.6875 19.1875 22.6875ZM28.8125 22.6875C28.5529 22.6875 28.2992 22.7645 28.0833 22.9087C27.8675 23.0529 27.6992 23.2579 27.5999 23.4977C27.5006 23.7375 27.4746 24.0014 27.5252 24.256C27.5759 24.5106 27.7009 24.7445 27.8844 24.9281C28.068 25.1116 28.3018 25.2366 28.5564 25.2873C28.811 25.3379 29.0749 25.3119 29.3148 25.2126C29.5546 25.1132 29.7596 24.945 29.9038 24.7292C30.048 24.5133 30.125 24.2596 30.125 24C30.125 23.6519 29.9867 23.318 29.7406 23.0719C29.4944 22.8258 29.1606 22.6875 28.8125 22.6875ZM35.375 24C35.3754 25.9638 34.8674 27.8944 33.9004 29.6036C32.9333 31.3129 31.5403 32.7427 29.8567 33.7538C28.1732 34.765 26.2565 35.323 24.2933 35.3737C22.3301 35.4243 20.3872 34.9658 18.6537 34.0428L14.9295 35.2842C14.6212 35.387 14.2903 35.4019 13.974 35.3273C13.6576 35.2526 13.3683 35.0913 13.1385 34.8615C12.9086 34.6317 12.7473 34.3424 12.6727 34.026C12.598 33.7097 12.613 33.3788 12.7158 33.0704L13.9572 29.3462C13.1458 27.8207 12.6926 26.1304 12.632 24.4035C12.5714 22.6767 12.905 20.9588 13.6075 19.3801C14.31 17.8015 15.3628 16.4036 16.6862 15.2926C18.0096 14.1816 19.5687 13.3867 21.2451 12.9683C22.9216 12.5498 24.6713 12.5188 26.3616 12.8775C28.0518 13.2362 29.6381 13.9753 31.0001 15.0386C32.3621 16.102 33.4639 17.4616 34.2219 19.0143C34.9799 20.5671 35.3743 22.2721 35.375 24ZM33.625 24C33.6246 22.5235 33.2845 21.067 32.6311 19.743C31.9777 18.4191 31.0285 17.2632 29.8568 16.3648C28.6852 15.4664 27.3226 14.8495 25.8744 14.562C24.4263 14.2745 22.9314 14.3239 21.5054 14.7066C20.0794 15.0893 18.7606 15.7948 17.6509 16.7687C16.5413 17.7427 15.6706 18.9588 15.1061 20.3231C14.5417 21.6873 14.2987 23.1632 14.3959 24.6364C14.4931 26.1096 14.9279 27.5408 15.6667 28.819C15.7287 28.9264 15.7672 29.0456 15.7797 29.1689C15.7921 29.2923 15.7782 29.4168 15.7389 29.5343L14.375 33.625L18.4656 32.2611C18.5547 32.2307 18.6482 32.2152 18.7423 32.2151C18.896 32.2154 19.0469 32.2561 19.1798 32.3333C20.6431 33.1798 22.3034 33.6261 23.9939 33.6272C25.6844 33.6283 27.3453 33.1841 28.8096 32.3393C30.2739 31.4946 31.4899 30.2791 32.3352 28.8152C33.1805 27.3512 33.6254 25.6905 33.625 24Z" fill="#363636"/>
</svg>
