<svg width="28" height="28" viewBox="0 0 28 28" fill="none" xmlns="http://www.w3.org/2000/svg">
<path d="M10.5 14.875L13.125 17.5L17.5 11.375M24.5 14C24.5 15.4793 23.765 16.7883 22.6415 17.5793C22.7625 18.2709 22.7152 18.9814 22.5033 19.6508C22.2915 20.3202 21.9215 20.9286 21.4247 21.4247C20.9286 21.9215 20.3202 22.2915 19.6508 22.5033C18.9814 22.7152 18.2709 22.7625 17.5793 22.6415C17.1759 23.2161 16.64 23.6849 16.0169 24.0085C15.3939 24.332 14.702 24.5006 14 24.5C12.5207 24.5 11.2117 23.765 10.4207 22.6415C9.72911 22.7624 9.01858 22.715 8.34924 22.5032C7.67989 22.2914 7.07142 21.9214 6.57533 21.4247C6.07848 20.9286 5.70848 20.3202 5.49666 19.6508C5.28484 18.9814 5.23745 18.2709 5.3585 17.5793C4.78394 17.1759 4.31506 16.64 3.99155 16.0169C3.66804 15.3939 3.49943 14.702 3.5 14C3.5 12.5207 4.235 11.2117 5.3585 10.4207C5.23745 9.7291 5.28484 9.01855 5.49666 8.34919C5.70848 7.67983 6.07848 7.07137 6.57533 6.57533C7.07142 6.07856 7.67989 5.70861 8.34924 5.4968C9.01858 5.28499 9.72911 5.23755 10.4207 5.3585C10.8242 4.78401 11.3601 4.31518 11.9831 3.99168C12.6062 3.66818 13.298 3.49953 14 3.5C15.4793 3.5 16.7883 4.235 17.5793 5.3585C18.2709 5.23755 18.9814 5.28499 19.6508 5.4968C20.3201 5.70861 20.9286 6.07856 21.4247 6.57533C21.9214 7.07142 22.2914 7.67989 22.5032 8.34924C22.715 9.01858 22.7624 9.7291 22.6415 10.4207C23.2161 10.8241 23.6849 11.36 24.0085 11.9831C24.332 12.6061 24.5006 13.298 24.5 14Z" stroke="#363636" stroke-width="1.5" stroke-linecap="round" stroke-linejoin="round"/>
</svg>
