<svg width="120" height="120" viewBox="0 0 120 120" fill="none" xmlns="http://www.w3.org/2000/svg">
<circle cx="60" cy="60" r="58" stroke="#363636" stroke-width="4"/>
<path d="M63 60.0001C63 60.5934 62.8241 61.1734 62.4944 61.6668C62.1648 62.1601 61.6962 62.5447 61.148 62.7717C60.5999 62.9988 59.9967 63.0582 59.4147 62.9424C58.8328 62.8267 58.2982 62.541 57.8787 62.1214C57.4591 61.7018 57.1734 61.1673 57.0576 60.5853C56.9419 60.0034 57.0013 59.4002 57.2284 58.852C57.4554 58.3039 57.8399 57.8353 58.3333 57.5057C58.8266 57.176 59.4067 57.0001 60 57.0001C60.7956 57.0001 61.5587 57.3161 62.1213 57.8788C62.6839 58.4414 63 59.2044 63 60.0001ZM49 57.0001C48.4067 57.0001 47.8266 57.176 47.3333 57.5057C46.8399 57.8353 46.4554 58.3039 46.2284 58.852C46.0013 59.4002 45.9419 60.0034 46.0576 60.5853C46.1734 61.1673 46.4591 61.7018 46.8787 62.1214C47.2982 62.541 47.8328 62.8267 48.4147 62.9424C48.9967 63.0582 49.5999 62.9988 50.1481 62.7717C50.6962 62.5447 51.1648 62.1601 51.4944 61.6668C51.8241 61.1734 52 60.5934 52 60.0001C52 59.2044 51.6839 58.4414 51.1213 57.8788C50.5587 57.3161 49.7956 57.0001 49 57.0001ZM71 57.0001C70.4067 57.0001 69.8266 57.176 69.3333 57.5057C68.8399 57.8353 68.4554 58.3039 68.2284 58.852C68.0013 59.4002 67.9419 60.0034 68.0576 60.5853C68.1734 61.1673 68.4591 61.7018 68.8787 62.1214C69.2982 62.541 69.8328 62.8267 70.4147 62.9424C70.9967 63.0582 71.5999 62.9988 72.148 62.7717C72.6962 62.5447 73.1648 62.1601 73.4944 61.6668C73.8241 61.1734 74 60.5934 74 60.0001C74 59.2044 73.6839 58.4414 73.1213 57.8788C72.5587 57.3161 71.7957 57.0001 71 57.0001ZM86 60.0001C86.001 64.4889 84.8398 68.9015 82.6294 72.8084C80.4191 76.7154 77.2349 79.9835 73.3868 82.2946C69.5386 84.6058 65.1577 85.8814 60.6703 85.9971C56.183 86.1128 51.7421 85.0648 47.78 82.9551L39.2675 85.7926C38.5627 86.0276 37.8064 86.0617 37.0833 85.8911C36.3602 85.7204 35.699 85.3518 35.1736 84.8264C34.6483 84.3011 34.2796 83.6398 34.109 82.9168C33.9384 82.1937 33.9725 81.4374 34.2075 80.7326L37.045 72.2201C35.1904 68.7332 34.1545 64.8695 34.016 60.9225C33.8775 56.9755 34.64 53.0488 36.2457 49.4404C37.8513 45.8321 40.2579 42.6369 43.2828 40.0976C46.3077 37.5582 49.8713 35.7413 53.7032 34.7848C57.5351 33.8283 61.5345 33.7573 65.3979 34.5772C69.2613 35.3972 72.8872 37.0865 76.0002 39.517C79.1133 41.9475 81.6317 45.0552 83.3644 48.6043C85.097 52.1534 85.9984 56.0506 86 60.0001ZM82 60.0001C81.999 56.6254 81.2217 53.2962 79.7282 50.2699C78.2347 47.2437 76.065 44.6017 73.387 42.5482C70.709 40.4947 67.5945 39.0848 64.2844 38.4275C60.9744 37.7703 57.5575 37.8834 54.2981 38.7581C51.0387 39.6327 48.0242 41.2455 45.4879 43.4716C42.9515 45.6976 40.9613 48.4774 39.6712 51.5957C38.381 54.7141 37.8255 58.0874 38.0477 61.4548C38.2699 64.8222 39.2638 68.0933 40.9525 71.0151C41.0942 71.2604 41.1822 71.533 41.2107 71.8148C41.2391 72.0967 41.2074 72.3814 41.1175 72.6501L38 82.0001L47.35 78.8826C47.5537 78.8131 47.7673 78.7777 47.9825 78.7776C48.3338 78.7782 48.6787 78.8713 48.9825 79.0476C52.327 80.9826 56.1222 82.0027 59.9861 82.0051C63.8501 82.0076 67.6465 80.9923 70.9934 79.0615C74.3404 77.1307 77.1198 74.3524 79.0519 71.0062C80.9841 67.6601 82.0009 63.864 82 60.0001Z" fill="#363636"/>
</svg>
