<svg width="48" height="48" viewBox="0 0 48 48" fill="none" xmlns="http://www.w3.org/2000/svg">
<circle cx="24" cy="24" r="23" stroke="#363636" stroke-width="2"/>
<path fill-rule="evenodd" clip-rule="evenodd" d="M14.6667 29.8333H33.3333C33.6428 29.8333 33.9395 29.9562 34.1583 30.175C34.3771 30.3938 34.5 30.6905 34.5 30.9999C34.5 31.3093 34.3771 31.6061 34.1583 31.8249C33.9395 32.0437 33.6428 32.1666 33.3333 32.1666H14.6667C14.3572 32.1666 14.0605 32.0437 13.8417 31.8249C13.6229 31.6061 13.5 31.3093 13.5 30.9999C13.5 30.6905 13.6229 30.3938 13.8417 30.175C14.0605 29.9562 14.3572 29.8333 14.6667 29.8333ZM29.8333 18.1666H31C31.6188 18.1666 32.2123 18.4124 32.6499 18.85C33.0875 19.2876 33.3333 19.8811 33.3333 20.4999C33.3333 21.1188 33.0875 21.7122 32.6499 22.1498C32.2123 22.5874 31.6188 22.8333 31 22.8333H29.8333C29.7948 22.8333 29.7552 22.8333 29.7167 22.8309C29.4478 24.1487 28.7319 25.3332 27.6903 26.184C26.6486 27.0348 25.345 27.4996 24 27.4999H21.6667C20.1196 27.4999 18.6358 26.8853 17.5419 25.7914C16.4479 24.6974 15.8333 23.2137 15.8333 21.6666V18.1666C15.8333 17.5477 16.0792 16.9543 16.5168 16.5167C16.9543 16.0791 17.5478 15.8333 18.1667 15.8333H27.5C28.1188 15.8333 28.7123 16.0791 29.1499 16.5167C29.5875 16.9543 29.8333 17.5477 29.8333 18.1666ZM18.1667 18.1666V21.6666C18.1667 22.5948 18.5354 23.4851 19.1918 24.1415C19.8482 24.7978 20.7384 25.1666 21.6667 25.1666H24C24.9283 25.1666 25.8185 24.7978 26.4749 24.1415C27.1313 23.4851 27.5 22.5948 27.5 21.6666V18.1666H18.1667Z" fill="#363636"/>
</svg>
