<svg width="120" height="120" viewBox="0 0 120 120" fill="none" xmlns="http://www.w3.org/2000/svg">
<circle cx="60" cy="60" r="58" stroke="#363636" stroke-width="4"/>
<path fill-rule="evenodd" clip-rule="evenodd" d="M38.6667 73.3333H81.3333C82.0406 73.3333 82.7189 73.6142 83.219 74.1143C83.7191 74.6144 84 75.2927 84 75.9999C84 76.7072 83.7191 77.3854 83.219 77.8855C82.7189 78.3856 82.0406 78.6666 81.3333 78.6666H38.6667C37.9594 78.6666 37.2811 78.3856 36.781 77.8855C36.281 77.3854 36 76.7072 36 75.9999C36 75.2927 36.281 74.6144 36.781 74.1143C37.2811 73.6142 37.9594 73.3333 38.6667 73.3333ZM73.3333 46.6666H76C77.4145 46.6666 78.771 47.2285 79.7712 48.2287C80.7714 49.2289 81.3333 50.5854 81.3333 51.9999C81.3333 53.4144 80.7714 54.771 79.7712 55.7712C78.771 56.7713 77.4145 57.3333 76 57.3333H73.3333C73.2453 57.3333 73.1547 57.3333 73.0667 57.3279C72.4521 60.3401 70.8159 63.0475 68.4349 64.9921C66.0539 66.9368 63.0742 67.9993 60 67.9999H54.6667C51.1304 67.9999 47.7391 66.5952 45.2386 64.0947C42.7381 61.5942 41.3333 58.2028 41.3333 54.6666V46.6666C41.3333 45.2521 41.8952 43.8955 42.8954 42.8953C43.8956 41.8952 45.2522 41.3333 46.6667 41.3333H68C69.4145 41.3333 70.771 41.8952 71.7712 42.8953C72.7714 43.8955 73.3333 45.2521 73.3333 46.6666ZM46.6667 46.6666V54.6666C46.6667 56.7883 47.5095 58.8232 49.0098 60.3234C50.5101 61.8237 52.5449 62.6666 54.6667 62.6666H60C62.1217 62.6666 64.1566 61.8237 65.6569 60.3234C67.1571 58.8232 68 56.7883 68 54.6666V46.6666H46.6667Z" fill="#363636"/>
</svg>
