<svg width="48" height="48" viewBox="0 0 48 48" fill="none" xmlns="http://www.w3.org/2000/svg">
<circle cx="24" cy="24" r="23" stroke="#363636" stroke-width="2"/>
<path d="M15.8332 34.5C15.5026 34.5 15.2253 34.388 15.0013 34.164C14.7773 33.94 14.6657 33.6631 14.6665 33.3333V32.1667C13.6943 32.1667 12.8679 31.8264 12.1873 31.1458C11.5068 30.4653 11.1665 29.6389 11.1665 28.6667V22.8333C11.1665 21.8611 11.5068 21.0347 12.1873 20.3542C12.8679 19.6736 13.6943 19.3333 14.6665 19.3333V17C14.6665 16.0278 15.0068 15.2014 15.6873 14.5208C16.3679 13.8403 17.1943 13.5 18.1665 13.5H29.8332C30.8054 13.5 31.6318 13.8403 32.3123 14.5208C32.9929 15.2014 33.3332 16.0278 33.3332 17V19.3333C34.3054 19.3333 35.1318 19.6736 35.8123 20.3542C36.4929 21.0347 36.8332 21.8611 36.8332 22.8333V28.6667C36.8332 29.6389 36.4929 30.4653 35.8123 31.1458C35.1318 31.8264 34.3054 32.1667 33.3332 32.1667V33.3333C33.3332 33.6639 33.2212 33.9412 32.9972 34.1652C32.7732 34.3892 32.4963 34.5008 32.1665 34.5C31.8359 34.5 31.5587 34.388 31.3347 34.164C31.1107 33.94 30.9991 33.6631 30.9998 33.3333V32.1667H16.9998V33.3333C16.9998 33.6639 16.8878 33.9412 16.6638 34.1652C16.4398 34.3892 16.1629 34.5008 15.8332 34.5ZM14.6665 29.8333H33.3332C33.6637 29.8333 33.941 29.7213 34.165 29.4973C34.389 29.2733 34.5006 28.9964 34.4998 28.6667V22.8333C34.4998 22.5028 34.3878 22.2255 34.1638 22.0015C33.9398 21.7775 33.663 21.6659 33.3332 21.6667C33.0026 21.6667 32.7253 21.7787 32.5013 22.0027C32.2773 22.2267 32.1657 22.5036 32.1665 22.8333V27.5H15.8332V22.8333C15.8332 22.5028 15.7212 22.2255 15.4972 22.0015C15.2732 21.7775 14.9963 21.6659 14.6665 21.6667C14.3359 21.6667 14.0587 21.7787 13.8347 22.0027C13.6107 22.2267 13.4991 22.5036 13.4998 22.8333V28.6667C13.4998 28.9972 13.6118 29.2745 13.8358 29.4985C14.0598 29.7225 14.3367 29.8341 14.6665 29.8333ZM18.1665 25.1667H29.8332V22.8333C29.8332 22.3083 29.9401 21.8319 30.154 21.4042C30.3679 20.9764 30.6498 20.5972 30.9998 20.2667V17C30.9998 16.6694 30.8878 16.3922 30.6638 16.1682C30.4398 15.9442 30.163 15.8326 29.8332 15.8333H18.1665C17.8359 15.8333 17.5587 15.9453 17.3347 16.1693C17.1107 16.3933 16.9991 16.6702 16.9998 17V20.2667C17.3498 20.5972 17.6318 20.9764 17.8457 21.4042C18.0596 21.8319 18.1665 22.3083 18.1665 22.8333V25.1667Z" fill="#363636"/>
</svg>
