<svg width="48" height="48" viewBox="0 0 48 48" fill="none" xmlns="http://www.w3.org/2000/svg">
<circle cx="24" cy="24" r="23" stroke="#363636" stroke-width="2"/>
<path d="M21.9284 24.5599C21.6977 24.5599 21.4721 24.6283 21.2802 24.7565C21.0884 24.8847 20.9388 25.0669 20.8505 25.2801C20.7622 25.4933 20.7391 25.7279 20.7841 25.9542C20.8292 26.1805 20.9403 26.3884 21.1034 26.5515C21.2666 26.7147 21.4745 26.8258 21.7008 26.8708C21.9271 26.9158 22.1617 26.8927 22.3749 26.8044C22.588 26.7161 22.7702 26.5666 22.8984 26.3747C23.0266 26.1829 23.0951 25.9573 23.0951 25.7266C23.0951 25.4172 22.9721 25.1204 22.7534 24.9016C22.5346 24.6828 22.2378 24.5599 21.9284 24.5599ZM21.9284 19.3333C21.6977 19.3333 21.4721 19.4017 21.2802 19.5299C21.0884 19.6581 20.9388 19.8403 20.8505 20.0535C20.7622 20.2666 20.7391 20.5012 20.7841 20.7275C20.8292 20.9538 20.9403 21.1617 21.1034 21.3249C21.2666 21.488 21.4745 21.5991 21.7008 21.6442C21.9271 21.6892 22.1617 21.6661 22.3749 21.5778C22.588 21.4895 22.7702 21.3399 22.8984 21.1481C23.0266 20.9562 23.0951 20.7307 23.0951 20.4999C23.0951 20.1905 22.9721 19.8938 22.7534 19.675C22.5346 19.4562 22.2378 19.3333 21.9284 19.3333ZM26.0001 21.6666C25.6906 21.6666 25.3939 21.7895 25.1751 22.0083C24.9563 22.2271 24.8334 22.5238 24.8334 22.8333V23.9999C24.8334 24.3093 24.9563 24.6061 25.1751 24.8249C25.3939 25.0437 25.6906 25.1666 26.0001 25.1666C26.3095 25.1666 26.6062 25.0437 26.825 24.8249C27.0438 24.6061 27.1667 24.3093 27.1667 23.9999V22.8333C27.1667 22.5238 27.0438 22.2271 26.825 22.0083C26.6062 21.7895 26.3095 21.6666 26.0001 21.6666ZM35.9167 19.9982C35.5143 19.7667 35.0697 19.6175 34.6091 19.5594C34.1484 19.5013 33.6807 19.5355 33.2334 19.6599C32.7678 19.7846 32.3342 20.0074 31.9617 20.3133L18.4284 12.4849C18.251 12.3825 18.0499 12.3286 17.8451 12.3286C17.6403 12.3286 17.4391 12.3825 17.2617 12.4849C17.0815 12.5862 16.9315 12.7336 16.8269 12.9119C16.7224 13.0903 16.6671 13.2932 16.6667 13.4999V28.8649C15.9782 29.0972 15.3813 29.542 14.9619 30.1354C14.5425 30.7288 14.3225 31.4401 14.3334 32.1666C14.3331 33.0789 14.689 33.9553 15.3253 34.609C15.9616 35.2628 16.8281 35.6423 17.7401 35.6666H18.4167C22.2396 35.6576 25.992 34.6372 29.293 32.7091C32.594 30.7809 35.326 28.0137 37.2117 24.6883C37.6472 23.8926 37.7569 22.9589 37.5175 22.084C37.2781 21.2091 36.7083 20.4613 35.9284 19.9982H35.9167ZM19.0001 15.5182L30.5384 22.1799C29.2583 24.09 27.547 25.6723 25.5427 26.7991C23.5384 27.9259 21.2972 28.5656 19.0001 28.6666V15.5182ZM35.1817 23.5449C33.4498 26.5965 30.9203 29.1196 27.8644 30.8438C24.8084 32.5681 21.341 33.4286 17.8334 33.3333C17.524 33.3333 17.2272 33.2103 17.0084 32.9915C16.7896 32.7727 16.6667 32.476 16.6667 32.1666C16.6658 32.0103 16.6963 31.8554 16.7565 31.7111C16.8166 31.5668 16.9051 31.436 17.0167 31.3266C17.2359 31.1153 17.529 30.9981 17.8334 30.9999H18.4284C21.4241 30.9987 24.3657 30.202 26.9525 28.6913C29.5394 27.1806 31.6787 25.0101 33.1517 22.4016C33.2225 22.2736 33.3193 22.1618 33.4358 22.0734C33.5524 21.985 33.6861 21.922 33.8284 21.8882C34.1226 21.8075 34.4367 21.8452 34.7034 21.9932C34.9711 22.1371 35.172 22.3798 35.2636 22.6696C35.3551 22.9593 35.3299 23.2734 35.1934 23.5449H35.1817Z" fill="#363636"/>
</svg>
