<svg width="120" height="120" viewBox="0 0 120 120" fill="none" xmlns="http://www.w3.org/2000/svg">
<circle cx="60" cy="60" r="58" stroke="#363636" stroke-width="4"/>
<path d="M54.6934 61.28C54.166 61.28 53.6504 61.4364 53.2119 61.7294C52.7734 62.0225 52.4316 62.4389 52.2297 62.9262C52.0279 63.4135 51.9751 63.9496 52.078 64.4669C52.1809 64.9842 52.4348 65.4594 52.8078 65.8323C53.1807 66.2052 53.6559 66.4592 54.1732 66.5621C54.6905 66.665 55.2266 66.6122 55.7139 66.4104C56.2012 66.2085 56.6176 65.8667 56.9107 65.4282C57.2037 64.9897 57.3601 64.4741 57.3601 63.9467C57.3601 63.2394 57.0791 62.5612 56.579 62.0611C56.0789 61.561 55.4007 61.28 54.6934 61.28ZM54.6934 49.3334C54.166 49.3334 53.6504 49.4897 53.2119 49.7828C52.7734 50.0758 52.4316 50.4923 52.2297 50.9795C52.0279 51.4668 51.9751 52.003 52.078 52.5203C52.1809 53.0375 52.4348 53.5127 52.8078 53.8856C53.1807 54.2586 53.6559 54.5126 54.1732 54.6154C54.6905 54.7183 55.2266 54.6655 55.7139 54.4637C56.2012 54.2619 56.6176 53.9201 56.9107 53.4815C57.2037 53.043 57.3601 52.5274 57.3601 52C57.3601 51.2928 57.0791 50.6145 56.579 50.1144C56.0789 49.6143 55.4007 49.3334 54.6934 49.3334ZM64.0001 54.6667C63.2928 54.6667 62.6146 54.9476 62.1145 55.4477C61.6144 55.9478 61.3334 56.6261 61.3334 57.3334V60C61.3334 60.7073 61.6144 61.3855 62.1145 61.8856C62.6146 62.3857 63.2928 62.6667 64.0001 62.6667C64.7073 62.6667 65.3856 62.3857 65.8857 61.8856C66.3858 61.3855 66.6667 60.7073 66.6667 60V57.3334C66.6667 56.6261 66.3858 55.9478 65.8857 55.4477C65.3856 54.9476 64.7073 54.6667 64.0001 54.6667ZM86.6667 50.8534C85.7468 50.3241 84.7308 49.9831 83.6778 49.8503C82.6248 49.7176 81.5559 49.7956 80.5334 50.08C79.4692 50.3651 78.4782 50.8742 77.6267 51.5734L46.6934 33.68C46.288 33.446 45.8282 33.3228 45.3601 33.3228C44.892 33.3228 44.4321 33.446 44.0267 33.68C43.6148 33.9116 43.2718 34.2484 43.0329 34.656C42.7939 35.0637 42.6676 35.5275 42.6667 36V71.12C41.093 71.6508 39.7285 72.6677 38.77 74.024C37.8115 75.3804 37.3084 77.006 37.3334 78.6667C37.3327 80.752 38.1462 82.7551 39.6006 84.2494C41.0551 85.7437 43.0355 86.6111 45.1201 86.6667H46.6667C55.4047 86.6462 63.9817 84.3139 71.5268 79.9067C79.0719 75.4995 85.3166 69.1743 89.6267 61.5734C90.6222 59.7547 90.8727 57.6206 90.3255 55.6208C89.7783 53.621 88.4761 51.9118 86.6934 50.8534H86.6667ZM48.0001 40.6134L74.3734 55.84C71.4475 60.2059 67.536 63.8226 62.9547 66.3982C58.3734 68.9737 53.2507 70.4359 48.0001 70.6667V40.6134ZM84.9867 58.96C81.028 65.9351 75.2464 71.7021 68.2613 75.6432C61.2763 79.5844 53.3507 81.5513 45.3334 81.3334C44.6262 81.3334 43.9479 81.0524 43.4478 80.5523C42.9477 80.0522 42.6667 79.3739 42.6667 78.6667C42.6647 78.3094 42.7344 77.9553 42.8718 77.6255C43.0093 77.2956 43.2116 76.9968 43.4667 76.7467C43.9677 76.2638 44.6376 75.9958 45.3334 76H46.6934C53.5407 75.9972 60.2644 74.1762 66.1772 70.7232C72.09 67.2702 76.9798 62.3089 80.3467 56.3467C80.5086 56.0542 80.7298 55.7987 80.9961 55.5967C81.2625 55.3946 81.5681 55.2504 81.8934 55.1734C82.5658 54.9888 83.2838 55.075 83.8934 55.4134C84.5052 55.7422 84.9646 56.2968 85.1738 56.9592C85.3829 57.6216 85.3254 58.3394 85.0134 58.96H84.9867Z" fill="#363636"/>
</svg>
