<svg width="20" height="20" viewBox="0 0 20 20" fill="none" xmlns="http://www.w3.org/2000/svg">
<circle cx="10" cy="10" r="9" fill="#E6EBFF" stroke="#363636" stroke-width="2"/>
<path d="M9.79853 14.096C9.32653 14.096 8.86653 14.008 8.41853 13.832C7.97053 13.656 7.62253 13.444 7.37453 13.196L8.27453 11.804C8.41853 11.98 8.62253 12.128 8.88653 12.248C9.15853 12.36 9.41853 12.416 9.66653 12.416C9.85053 12.416 10.0225 12.376 10.1825 12.296C10.3425 12.216 10.4705 12.096 10.5665 11.936C10.6625 11.776 10.7105 11.58 10.7105 11.348C10.7105 11.092 10.6585 10.868 10.5545 10.676C10.4585 10.484 10.3145 10.336 10.1225 10.232C9.93853 10.12 9.71853 10.064 9.46253 10.064C9.21453 10.064 8.97853 10.1 8.75453 10.172C8.53053 10.236 8.26653 10.348 7.96253 10.508H7.95053V6.044H11.9225V7.724H9.45053V9.008L9.24653 8.648C9.35853 8.632 9.46653 8.62 9.57053 8.612C9.67453 8.604 9.77853 8.6 9.88253 8.6C10.4425 8.6 10.9145 8.724 11.2985 8.972C11.6905 9.22 11.9905 9.548 12.1985 9.956C12.4065 10.364 12.5105 10.808 12.5105 11.288C12.5105 11.816 12.3905 12.292 12.1505 12.716C11.9105 13.14 11.5825 13.476 11.1665 13.724C10.7585 13.972 10.3025 14.096 9.79853 14.096Z" fill="#363636"/>
</svg>
