<svg width="24" height="24" viewBox="0 0 24 24" fill="none" xmlns="http://www.w3.org/2000/svg">
<circle cx="12" cy="12" r="11" fill="#E6EBFF" stroke="#363636" stroke-width="2"/>
<path d="M11.765 17.112C11.2143 17.112 10.6776 17.0093 10.155 16.804C9.63229 16.5987 9.22629 16.3513 8.93695 16.062L9.98695 14.438C10.155 14.6433 10.393 14.816 10.701 14.956C11.0183 15.0867 11.3216 15.152 11.611 15.152C11.8256 15.152 12.0263 15.1053 12.213 15.012C12.3996 14.9187 12.549 14.7787 12.661 14.592C12.773 14.4053 12.829 14.1767 12.829 13.906C12.829 13.6073 12.7683 13.346 12.647 13.122C12.535 12.898 12.367 12.7253 12.143 12.604C11.9283 12.4733 11.6716 12.408 11.373 12.408C11.0836 12.408 10.8083 12.45 10.547 12.534C10.2856 12.6087 9.97762 12.7393 9.62295 12.926H9.60895V7.718H14.243V9.678H11.359V11.176L11.121 10.756C11.2516 10.7373 11.3776 10.7233 11.499 10.714C11.6203 10.7047 11.7416 10.7 11.863 10.7C12.5163 10.7 13.067 10.8447 13.515 11.134C13.9723 11.4233 14.3223 11.806 14.565 12.282C14.8076 12.758 14.929 13.276 14.929 13.836C14.929 14.452 14.789 15.0073 14.509 15.502C14.229 15.9967 13.8463 16.3887 13.361 16.678C12.885 16.9673 12.353 17.112 11.765 17.112Z" fill="#363636"/>
</svg>
