<svg width="20" height="20" viewBox="0 0 20 20" fill="none" xmlns="http://www.w3.org/2000/svg">
<circle cx="10" cy="10" r="9" fill="#E6EBFF" stroke="#363636" stroke-width="2"/>
<path d="M7.14995 14C7.64595 13.496 8.12195 13.012 8.57795 12.548C9.03395 12.076 9.44195 11.624 9.80195 11.192C10.17 10.752 10.458 10.328 10.666 9.92C10.882 9.512 10.99 9.116 10.99 8.732C10.99 8.564 10.958 8.412 10.894 8.276C10.838 8.14 10.754 8.024 10.642 7.928C10.538 7.832 10.41 7.76 10.258 7.712C10.114 7.656 9.94995 7.628 9.76595 7.628C9.58195 7.628 9.41795 7.656 9.27395 7.712C9.12995 7.76 9.00995 7.828 8.91395 7.916C8.81795 8.004 8.74195 8.1 8.68595 8.204C8.63795 8.308 8.61395 8.416 8.61395 8.528C8.61395 8.784 8.65395 9.012 8.73395 9.212C8.82195 9.404 8.93795 9.576 9.08195 9.728L8.01395 10.7C7.78195 10.588 7.58195 10.4 7.41395 10.136C7.25395 9.872 7.12995 9.596 7.04195 9.308C6.96195 9.012 6.92195 8.768 6.92195 8.576C6.92195 8.136 7.04195 7.716 7.28195 7.316C7.52995 6.916 7.88595 6.588 8.34995 6.332C8.82195 6.076 9.39395 5.948 10.066 5.948C10.618 5.948 11.098 6.072 11.506 6.32C11.914 6.568 12.23 6.896 12.454 7.304C12.686 7.704 12.802 8.132 12.802 8.588C12.802 8.948 12.746 9.296 12.634 9.632C12.522 9.968 12.366 10.3 12.166 10.628C11.974 10.948 11.754 11.268 11.506 11.588C11.258 11.9 11.002 12.22 10.738 12.548L9.94595 12.32H12.898V14H7.14995Z" fill="#363636"/>
</svg>
