<svg width="24" height="24" viewBox="0 0 24 24" fill="none" xmlns="http://www.w3.org/2000/svg">
<circle cx="12" cy="12" r="11" fill="#E6EBFF" stroke="#363636" stroke-width="2"/>
<path d="M8.67495 17C9.25361 16.412 9.80895 15.8473 10.3409 15.306C10.8729 14.7553 11.3489 14.228 11.7689 13.724C12.1983 13.2107 12.5343 12.716 12.7769 12.24C13.0289 11.764 13.1549 11.302 13.1549 10.854C13.1549 10.658 13.1176 10.4807 13.0429 10.322C12.9776 10.1633 12.8796 10.028 12.7489 9.916C12.6276 9.804 12.4783 9.72 12.3009 9.664C12.1329 9.59867 11.9416 9.566 11.7269 9.566C11.5123 9.566 11.3209 9.59867 11.1529 9.664C10.9849 9.72 10.8449 9.79933 10.7329 9.902C10.6209 10.0047 10.5323 10.1167 10.4669 10.238C10.4109 10.3593 10.3829 10.4853 10.3829 10.616C10.3829 10.9147 10.4296 11.1807 10.5229 11.414C10.6256 11.638 10.7609 11.8387 10.9289 12.016L9.68295 13.15C9.41228 13.0193 9.17895 12.8 8.98295 12.492C8.79628 12.184 8.65161 11.862 8.54895 11.526C8.45561 11.1807 8.40895 10.896 8.40895 10.672C8.40895 10.1587 8.54895 9.66867 8.82895 9.202C9.11828 8.73533 9.53361 8.35267 10.0749 8.054C10.6256 7.75533 11.2929 7.606 12.0769 7.606C12.7209 7.606 13.2809 7.75067 13.7569 8.04C14.2329 8.32933 14.6016 8.712 14.8629 9.188C15.1336 9.65467 15.2689 10.154 15.2689 10.686C15.2689 11.106 15.2036 11.512 15.0729 11.904C14.9423 12.296 14.7603 12.6833 14.5269 13.066C14.3029 13.4393 14.0463 13.8127 13.7569 14.186C13.4676 14.55 13.1689 14.9233 12.8609 15.306L11.9369 15.04H15.3809V17H8.67495Z" fill="#363636"/>
</svg>
