<svg width="20" height="20" viewBox="0 0 20 20" fill="none" xmlns="http://www.w3.org/2000/svg">
<circle cx="10" cy="10" r="9" fill="#E6EBFF" stroke="#363636" stroke-width="2"/>
<path d="M12.3079 6.044L10.5079 9.5L9.55994 8.984C9.63994 8.952 9.72394 8.928 9.81194 8.912C9.90794 8.896 9.99594 8.888 10.0759 8.888C10.3559 8.88 10.6359 8.912 10.9159 8.984C11.1959 9.056 11.4479 9.184 11.6719 9.368C11.9039 9.552 12.0879 9.804 12.2239 10.124C12.3679 10.444 12.4399 10.852 12.4399 11.348C12.4399 11.924 12.3039 12.42 12.0319 12.836C11.7679 13.244 11.4199 13.556 10.9879 13.772C10.5559 13.988 10.0879 14.096 9.58394 14.096C9.19194 14.096 8.77994 14.016 8.34794 13.856C7.91594 13.688 7.57194 13.468 7.31594 13.196L8.20394 11.756C8.32394 11.908 8.50794 12.056 8.75594 12.2C9.00394 12.344 9.26394 12.416 9.53594 12.416C9.71194 12.416 9.88394 12.372 10.0519 12.284C10.2199 12.196 10.3599 12.064 10.4719 11.888C10.5839 11.712 10.6399 11.496 10.6399 11.24C10.6399 10.888 10.5399 10.608 10.3399 10.4C10.1479 10.192 9.87594 10.088 9.52394 10.088C9.28394 10.088 9.09994 10.1 8.97194 10.124C8.85194 10.14 8.73194 10.164 8.61194 10.196L8.57594 10.148L9.97994 7.52L10.4839 7.724H7.97594V6.044H12.3079Z" fill="#363636"/>
</svg>
