<svg width="24" height="24" viewBox="0 0 24 24" fill="none" xmlns="http://www.w3.org/2000/svg">
<circle cx="12" cy="12" r="11" fill="#E6EBFF" stroke="#363636" stroke-width="2"/>
<path d="M14.6926 7.718L12.5926 11.75L11.4866 11.148C11.5799 11.1107 11.6779 11.0827 11.7806 11.064C11.8926 11.0453 11.9953 11.036 12.0886 11.036C12.4153 11.0267 12.7419 11.064 13.0686 11.148C13.3953 11.232 13.6893 11.3813 13.9506 11.596C14.2213 11.8107 14.4359 12.1047 14.5946 12.478C14.7626 12.8513 14.8466 13.3273 14.8466 13.906C14.8466 14.578 14.6879 15.1567 14.3706 15.642C14.0626 16.118 13.6566 16.482 13.1526 16.734C12.6486 16.986 12.1026 17.112 11.5146 17.112C11.0573 17.112 10.5766 17.0187 10.0726 16.832C9.56859 16.636 9.16726 16.3793 8.86859 16.062L9.90459 14.382C10.0446 14.5593 10.2593 14.732 10.5486 14.9C10.8379 15.068 11.1413 15.152 11.4586 15.152C11.6639 15.152 11.8646 15.1007 12.0606 14.998C12.2566 14.8953 12.4199 14.7413 12.5506 14.536C12.6813 14.3307 12.7466 14.0787 12.7466 13.78C12.7466 13.3693 12.6299 13.0427 12.3966 12.8C12.1726 12.5573 11.8553 12.436 11.4446 12.436C11.1646 12.436 10.9499 12.45 10.8006 12.478C10.6606 12.4967 10.5206 12.5247 10.3806 12.562L10.3386 12.506L11.9766 9.44L12.5646 9.678H9.63859V7.718H14.6926Z" fill="#363636"/>
</svg>
