<svg width="120" height="120" viewBox="0 0 120 120" fill="none" xmlns="http://www.w3.org/2000/svg">
<circle cx="60" cy="60" r="58" stroke="#363636" stroke-width="4"/>
<path d="M41.3332 84C40.5776 84 39.9438 83.744 39.4318 83.232C38.9198 82.72 38.6647 82.0871 38.6665 81.3333V78.6667C36.4443 78.6667 34.5554 77.8889 32.9998 76.3333C31.4443 74.7778 30.6665 72.8889 30.6665 70.6667V57.3333C30.6665 55.1111 31.4443 53.2222 32.9998 51.6667C34.5554 50.1111 36.4443 49.3333 38.6665 49.3333V44C38.6665 41.7778 39.4443 39.8889 40.9998 38.3333C42.5554 36.7778 44.4443 36 46.6665 36H73.3332C75.5554 36 77.4443 36.7778 78.9998 38.3333C80.5554 39.8889 81.3332 41.7778 81.3332 44V49.3333C83.5554 49.3333 85.4443 50.1111 86.9998 51.6667C88.5554 53.2222 89.3332 55.1111 89.3332 57.3333V70.6667C89.3332 72.8889 88.5554 74.7778 86.9998 76.3333C85.4443 77.8889 83.5554 78.6667 81.3332 78.6667V81.3333C81.3332 82.0889 81.0772 82.7227 80.5652 83.2347C80.0532 83.7467 79.4203 84.0018 78.6665 84C77.9109 84 77.2772 83.744 76.7652 83.232C76.2532 82.72 75.9981 82.0871 75.9998 81.3333V78.6667H43.9998V81.3333C43.9998 82.0889 43.7438 82.7227 43.2318 83.2347C42.7198 83.7467 42.0869 84.0018 41.3332 84ZM38.6665 73.3333H81.3332C82.0887 73.3333 82.7225 73.0773 83.2345 72.5653C83.7465 72.0533 84.0016 71.4204 83.9998 70.6667V57.3333C83.9998 56.5778 83.7438 55.944 83.2318 55.432C82.7198 54.92 82.0869 54.6649 81.3332 54.6667C80.5776 54.6667 79.9438 54.9227 79.4318 55.4347C78.9198 55.9467 78.6647 56.5796 78.6665 57.3333V68H41.3332V57.3333C41.3332 56.5778 41.0772 55.944 40.5652 55.432C40.0532 54.92 39.4203 54.6649 38.6665 54.6667C37.9109 54.6667 37.2772 54.9227 36.7652 55.4347C36.2532 55.9467 35.9981 56.5796 35.9998 57.3333V70.6667C35.9998 71.4222 36.2558 72.056 36.7678 72.568C37.2798 73.08 37.9127 73.3351 38.6665 73.3333ZM46.6665 62.6667H73.3332V57.3333C73.3332 56.1333 73.5776 55.0444 74.0665 54.0667C74.5554 53.0889 75.1998 52.2222 75.9998 51.4667V44C75.9998 43.2444 75.7438 42.6107 75.2318 42.0987C74.7198 41.5867 74.0869 41.3316 73.3332 41.3333H46.6665C45.9109 41.3333 45.2772 41.5893 44.7652 42.1013C44.2532 42.6133 43.9981 43.2462 43.9998 44V51.4667C44.7998 52.2222 45.4443 53.0889 45.9332 54.0667C46.4221 55.0444 46.6665 56.1333 46.6665 57.3333V62.6667Z" fill="#363636"/>
</svg>
