<svg width="121" height="120" viewBox="0 0 121 120" fill="none" xmlns="http://www.w3.org/2000/svg">
<circle cx="60.5" cy="60" r="58" stroke="#363636" stroke-width="4"/>
<path d="M60.4998 33.3333C49.8332 33.3333 39.1665 34.6666 39.1665 43.9999V69.3333C39.1665 74.4799 43.3532 78.6666 48.4998 78.6666L44.4998 82.6666V83.9999H76.4998V82.6666L72.4998 78.6666C77.6465 78.6666 81.8332 74.4799 81.8332 69.3333V43.9999C81.8332 34.6666 72.2865 33.3333 60.4998 33.3333ZM75.5932 41.3333H45.6465C47.2732 39.9466 51.1398 38.6666 60.4998 38.6666C70.3932 38.6666 74.1532 39.8933 75.5932 41.3333ZM57.8332 46.6666V54.6666H44.4998V46.6666H57.8332ZM63.1665 46.6666H76.4998V54.6666H63.1665V46.6666ZM72.4998 73.3333H48.4998C46.2865 73.3333 44.4998 71.5466 44.4998 69.3333V59.9999H76.4998V69.3333C76.4998 71.5466 74.7132 73.3333 72.4998 73.3333Z" fill="#363636"/>
<path d="M51.1665 70.6667C53.3756 70.6667 55.1665 68.8759 55.1665 66.6667C55.1665 64.4576 53.3756 62.6667 51.1665 62.6667C48.9574 62.6667 47.1665 64.4576 47.1665 66.6667C47.1665 68.8759 48.9574 70.6667 51.1665 70.6667Z" fill="#363636"/>
<path d="M69.8335 70.6667C72.0426 70.6667 73.8335 68.8759 73.8335 66.6667C73.8335 64.4576 72.0426 62.6667 69.8335 62.6667C67.6244 62.6667 65.8335 64.4576 65.8335 66.6667C65.8335 68.8759 67.6244 70.6667 69.8335 70.6667Z" fill="#363636"/>
</svg>
