<svg width="48" height="48" viewBox="0 0 48 48" fill="none" xmlns="http://www.w3.org/2000/svg">
<circle cx="24" cy="24" r="23" stroke="#363636" stroke-width="2"/>
<path d="M23.9998 12.3333C19.3332 12.3333 14.6665 12.9166 14.6665 16.9999V28.0833C14.6665 30.3349 16.4982 32.1666 18.7498 32.1666L16.9998 33.9166V34.4999H30.9998V33.9166L29.2498 32.1666C31.5015 32.1666 33.3332 30.3349 33.3332 28.0833V16.9999C33.3332 12.9166 29.1565 12.3333 23.9998 12.3333ZM30.6032 15.8333H17.5015C18.2132 15.2266 19.9048 14.6666 23.9998 14.6666C28.3282 14.6666 29.9732 15.2033 30.6032 15.8333ZM22.8332 18.1666V21.6666H16.9998V18.1666H22.8332ZM25.1665 18.1666H30.9998V21.6666H25.1665V18.1666ZM29.2498 29.8333H18.7498C17.7815 29.8333 16.9998 29.0516 16.9998 28.0833V23.9999H30.9998V28.0833C30.9998 29.0516 30.2182 29.8333 29.2498 29.8333Z" fill="#363636"/>
<path d="M19.9165 28.6667C20.883 28.6667 21.6665 27.8832 21.6665 26.9167C21.6665 25.9502 20.883 25.1667 19.9165 25.1667C18.95 25.1667 18.1665 25.9502 18.1665 26.9167C18.1665 27.8832 18.95 28.6667 19.9165 28.6667Z" fill="#363636"/>
<path d="M28.0835 28.6667C29.05 28.6667 29.8335 27.8832 29.8335 26.9167C29.8335 25.9502 29.05 25.1667 28.0835 25.1667C27.117 25.1667 26.3335 25.9502 26.3335 26.9167C26.3335 27.8832 27.117 28.6667 28.0835 28.6667Z" fill="#363636"/>
</svg>
