<svg width="120" height="120" viewBox="0 0 120 120" fill="none" xmlns="http://www.w3.org/2000/svg">
<circle cx="60" cy="60" r="58" stroke="#363636" stroke-width="4"/>
<path d="M42.1332 66.0667C41.3332 65.2668 40.9554 64.3112 40.9998 63.2001C41.0443 62.089 41.4887 61.2223 42.3332 60.6001C44.7776 58.7334 47.5003 57.2783 50.5012 56.2348C53.5021 55.1912 56.6683 54.6685 59.9998 54.6668C63.3776 54.6668 66.567 55.2001 69.5678 56.2668C72.5687 57.3334 75.2905 58.8223 77.7332 60.7334C78.5776 61.3556 79.0114 62.2116 79.0345 63.3014C79.0576 64.3912 78.6683 65.3352 77.8665 66.1334C77.111 66.889 76.1883 67.2783 75.0985 67.3014C74.0087 67.3245 72.9981 67.0241 72.0665 66.4001C70.3332 65.2001 68.4558 64.2774 66.4345 63.6321C64.4132 62.9868 62.2683 62.665 59.9998 62.6668C57.7332 62.6668 55.5883 63.0001 53.5652 63.6668C51.5421 64.3334 49.6869 65.2445 47.9998 66.4001C47.0221 67.0667 45.9883 67.3672 44.8985 67.3014C43.8087 67.2356 42.8869 66.8241 42.1332 66.0667ZM30.7998 54.8001C30.0443 54.0445 29.6665 53.1219 29.6665 52.0321C29.6665 50.9423 30.0665 50.0428 30.8665 49.3334C34.8221 46.0001 39.2665 43.3885 44.1998 41.4988C49.1332 39.609 54.3998 38.665 59.9998 38.6668C65.5998 38.6668 70.8665 39.6116 75.7998 41.5014C80.7332 43.3912 85.1776 46.0019 89.1332 49.3334C89.9332 50.0445 90.3447 50.9334 90.3678 52.0001C90.391 53.0668 90.0016 54.0001 89.1998 54.8001C88.4443 55.5556 87.5225 55.9556 86.4345 56.0001C85.3465 56.0445 84.3572 55.7112 83.4665 55.0001C80.2221 52.3779 76.6105 50.3334 72.6318 48.8668C68.6532 47.4001 64.4425 46.6668 59.9998 46.6668C55.5554 46.6668 51.3447 47.4001 47.3678 48.8668C43.3909 50.3334 39.7794 52.3779 36.5332 55.0001C35.6443 55.7112 34.6549 56.0445 33.5652 56.0001C32.4754 55.9556 31.5536 55.5556 30.7998 54.8001ZM59.9998 81.3334C58.4887 81.3334 57.2221 80.8223 56.1998 79.8001C55.1776 78.7779 54.6665 77.5112 54.6665 76.0001C54.6665 74.489 55.1776 73.2223 56.1998 72.2001C57.2221 71.1779 58.4887 70.6668 59.9998 70.6668C61.511 70.6668 62.7776 71.1779 63.7998 72.2001C64.8221 73.2223 65.3332 74.489 65.3332 76.0001C65.3332 77.5112 64.8221 78.7779 63.7998 79.8001C62.7776 80.8223 61.511 81.3334 59.9998 81.3334Z" fill="#363636"/>
</svg>
