<svg width="48" height="48" viewBox="0 0 48 48" fill="none" xmlns="http://www.w3.org/2000/svg">
<circle cx="24" cy="24" r="23" stroke="#363636" stroke-width="2"/>
<path d="M16.1832 26.6542C15.8332 26.3042 15.6679 25.8862 15.6873 25.4001C15.7068 24.914 15.9012 24.5348 16.2707 24.2626C17.3401 23.4459 18.5313 22.8093 19.8442 22.3527C21.1571 21.8962 22.5423 21.6675 23.9998 21.6667C25.4776 21.6667 26.8729 21.9001 28.1858 22.3668C29.4987 22.8334 30.6895 23.4848 31.7582 24.3209C32.1276 24.5931 32.3174 24.9676 32.3275 25.4444C32.3376 25.9212 32.1673 26.3342 31.8165 26.6834C31.486 27.014 31.0823 27.1843 30.6055 27.1944C30.1287 27.2045 29.6866 27.0731 29.279 26.8001C28.5207 26.2751 27.6993 25.8714 26.815 25.5891C25.9307 25.3068 24.9923 25.166 23.9998 25.1667C23.0082 25.1667 22.0698 25.3126 21.1847 25.6042C20.2996 25.8959 19.4879 26.2945 18.7498 26.8001C18.3221 27.0917 17.8698 27.2232 17.393 27.1944C16.9162 27.1656 16.5129 26.9856 16.1832 26.6542ZM11.2248 21.7251C10.8943 21.3945 10.729 20.9909 10.729 20.5141C10.729 20.0373 10.904 19.6437 11.254 19.3334C12.9846 17.8751 14.929 16.7325 17.0873 15.9057C19.2457 15.079 21.5498 14.666 23.9998 14.6667C26.4498 14.6667 28.754 15.0801 30.9123 15.9069C33.0707 16.7337 35.0151 17.8759 36.7457 19.3334C37.0957 19.6445 37.2757 20.0334 37.2858 20.5001C37.2959 20.9667 37.1256 21.3751 36.7748 21.7251C36.4443 22.0556 36.041 22.2306 35.565 22.2501C35.089 22.2695 34.6562 22.1237 34.2665 21.8126C32.8471 20.6654 31.267 19.7709 29.5263 19.1292C27.7857 18.4876 25.9435 18.1667 23.9998 18.1667C22.0554 18.1667 20.2132 18.4876 18.4733 19.1292C16.7334 19.7709 15.1534 20.6654 13.7332 21.8126C13.3443 22.1237 12.9114 22.2695 12.4347 22.2501C11.9579 22.2306 11.5546 22.0556 11.2248 21.7251ZM23.9998 33.3334C23.3387 33.3334 22.7846 33.1098 22.3373 32.6626C21.8901 32.2154 21.6665 31.6612 21.6665 31.0001C21.6665 30.339 21.8901 29.7848 22.3373 29.3376C22.7846 28.8904 23.3387 28.6667 23.9998 28.6667C24.6609 28.6667 25.2151 28.8904 25.6623 29.3376C26.1096 29.7848 26.3332 30.339 26.3332 31.0001C26.3332 31.6612 26.1096 32.2154 25.6623 32.6626C25.2151 33.1098 24.6609 33.3334 23.9998 33.3334Z" fill="#363636"/>
</svg>
